<svg xmlns="http://www.w3.org/2000/svg" viewBox="0 0 512 512" role="img" aria-label="神人刘题库：劉字标志">
<defs><linearGradient id="brand" x1="0" y1="0" x2="1" y2="1"><stop stop-color="#365adc"/><stop offset="1" stop-color="#6351bd"/></linearGradient></defs>
<rect width="512" height="512" rx="112" fill="url(#brand)"/>
<path fill="#fffdf6" d="M454 170 384 166 382 30Q394 32 406 33Q400 36 400.0 46.0Q400 56 423.0 88.5Q446 121 448.5 133.0Q451 145 451 159Q451 166 454 170ZM257 23Q246 23 234 43Q214 86 201.5 102.0Q189 118 189 127Q189 137 206 149Q218 156 224 156Q237 156 268.0 112.5Q299 69 299 58Q299 45 278 32Q266 23 257 23ZM715 116Q694 116 673 134Q660 145 660 156Q660 172 663.0 185.5Q666 199 666 576Q666 599 657.5 612.5Q649 626 649 634Q649 646 665 646Q676 646 699.5 638.0Q723 630 727.5 621.5Q732 613 735 144Q735 116 715 116ZM135 399Q107 399 85 431Q77 443 77 450Q77 464 97.0 464.0Q117 464 136 474Q118 664 114 674Q107 690 107 698Q107 710 126 710Q140 710 172 697Q219 717 250.0 743.5Q281 770 284.5 786.5Q288 803 299 803Q307 803 318 792Q346 764 346 743Q346 723 291.0 691.0Q236 659 187 638L199 508Q231 525 277 564Q271 575 256.5 595.5Q242 616 242 624Q242 631 251.5 641.5Q261 652 274 652Q286 652 310.0 624.0Q334 596 363 542Q366 535 368 529Q417 602 437 670L418 669Q414 668 404 668Q381 668 370 678Q346 710 346 721Q346 736 359 736Q379 731 409 731L580 745Q605 745 613.0 728.0Q621 711 621 706Q621 700 619.5 694.5Q618 689 614 651Q594 429 532 429Q511 429 469.5 468.0Q428 507 428 518Q428 532 441 532Q449 532 473.5 520.5Q498 509 521 503Q529 503 545 637L550 680L511 676Q491 615 461.5 573.0Q432 531 406.5 509.5Q381 488 371 488Q356 488 356 502Q356 503 356 505Q355 504 352 502Q350 500 347 498Q357 494 373 480Q394 461 394.0 448.0Q394 435 391 431Q543 369 571.5 353.0Q600 337 606.0 329.0Q612 321 612.0 313.0Q612 305 609 293Q599 266 581 266Q569 266 516.0 299.0Q463 332 346 384Q298 338 277 322L398 329Q415 331 422.5 333.5Q430 336 444 336Q453 336 469.5 319.5Q486 303 486 294Q486 283 476.0 280.0Q466 277 385 272L384 226Q486 231 498.0 234.0Q510 237 520.0 237.0Q530 237 546.5 222.0Q563 207 563 193Q563 177 535 174L475 171Q480 169 485 167Q498 161 508.0 150.5Q518 140 518 132Q518 123 512.5 115.5Q507 108 468 70Q443 45 427 36Q472 43 513 52Q574 66 589 66Q609 66 609 51Q609 35 572 23Q381 -33 179 -72Q166 -75 154 -75Q127 -75 107 -33Q95 -10 95 -5Q95 8 113 8Q125 7 148 7Q271 13 314 20L316 164L195 159Q153 159 135 212Q135 224 147 224L192 219L317 224L318 267L279 266Q247 266 236 291Q149 230 80 202Q66 196 57 196Q42 196 42 211Q42 223 65 238Q233 352 311 454Q321 464 324 482Q324 486 326 490H325Q310 490 304 506L300 513Q161 399 135 399ZM843 -113Q809 -113 716 -30Q665 15 665 29Q665 41 681 41Q691 41 728.5 22.0Q766 3 820 -14L822 753Q822 774 807 796Q801 805 801 813Q801 824 819 824Q831 824 855.0 814.5Q879 805 886.5 797.0Q894 789 894 776L891 -20L893 -54Q893 -75 875.5 -94.0Q858 -113 843 -113Z" transform="translate(96.17076 377.40875) scale(0.3415155 -0.3415155)"/>
</svg>
